# xmcd CD database file
#
# Track frame offsets:
#	150
#	14875
#	28848
#	43246
#	59383
#	76643
#	89283
#	89733
#	107430
#	122570
#
# Disc length: 1833 seconds
#
# Revision: 0
# Processed by: cddbd v1.5.1PL0 Copyright (c) Steve Scherf et al.
# Submitted via: CDex 1.40Release
#
DISCID=7e07270a
DTITLE=Andy Griggs - You Won't Ever Be Lonely (-)
DYEAR=1998
DGENRE=Country
TTITLE0=You Made Me That Way
TTITLE1=I'll Go Crazy
TTITLE2=I Miss You The Most
TTITLE3=You Won't Ever Be Lonely
TTITLE4=Waitin' On Sundown
TTITLE5=A Side Of Me
TTITLE6=I Don't Know A Thing
TTITLE7=Shine On Me (with Waylon Jennings)
TTITLE8=Ain't Done Nothin' Wrong
TTITLE9=She's More
EXTD=YEAR: 1998 ID3G: 2
EXTT0=
EXTT1=
EXTT2=
EXTT3=
EXTT4=
EXTT5=
EXTT6=
EXTT7=
EXTT8=
EXTT9=
PLAYORDER=
